<svg version="1.1" xmlns="http://www.w3.org/2000/svg" xmlns:xlink="http://www.w3.org/1999/xlink" width="60.000000pt" height="60.000000pt" viewBox="0,0,256,256"><g fill="#ff0000" fill-rule="nonzero" stroke="none" stroke-width="1" stroke-linecap="butt" stroke-linejoin="miter" stroke-miterlimit="10" stroke-dasharray="" stroke-dashoffset="0" font-family="none" font-weight="none" font-size="none" text-anchor="none" style="mix-blend-mode: normal"><g transform="translate(-0.10834,-0.43946) scale(4.26667,4.26667)"><g transform="translate(0,60) scale(0.1,-0.1)"><path d="M220,527c-49,-16 -133,-102 -148,-153c-28,-94 -8,-169 63,-239c101,-102 229,-102 330,0c98,97 101,222 8,325c-65,72 -158,97 -253,67zM329,487c6,-8 17,-30 26,-50l15,-37h-70h-70l15,37c20,48 33,63 55,63c10,0 23,-6 29,-13zM203,440c-14,-34 -21,-40 -45,-40c-25,0 -27,2 -19,19c11,19 60,60 73,61c3,0 -1,-18 -9,-40zM421,459c16,-11 34,-29 39,-40c9,-17 7,-19 -18,-19c-24,0 -31,6 -45,40c-18,46 -16,48 24,19zM180,300v-60h-34c-37,0 -46,12 -46,60c0,48 9,60 46,60h34zM380,300v-60h-80h-80v60v60h80h80zM494,344c3,-9 6,-28 6,-44c0,-48 -9,-60 -46,-60h-34v60v60h34c22,0 36,-6 40,-16zM203,160c8,-22 13,-40 10,-40c-12,0 -64,43 -73,61c-9,17 -7,19 18,19c24,0 31,-6 45,-40zM355,163c-20,-48 -33,-63 -55,-63c-22,0 -35,15 -55,63l-15,37h70h70zM460,181c-9,-18 -61,-61 -73,-61c-3,0 2,18 10,40c14,34 21,40 45,40c25,0 27,-2 18,-19z"></path></g></g></g></svg>