<svg version="1.1" xmlns="http://www.w3.org/2000/svg" xmlns:xlink="http://www.w3.org/1999/xlink" width="50.000000pt" height="50.000000pt" viewBox="0,0,256,256"><g fill="#ff0000" fill-rule="nonzero" stroke="none" stroke-width="1" stroke-linecap="butt" stroke-linejoin="miter" stroke-miterlimit="10" stroke-dasharray="" stroke-dashoffset="0" font-family="none" font-weight="none" font-size="none" text-anchor="none" style="mix-blend-mode: normal"><g transform="scale(5.12,5.12)"><g transform="translate(0,50) scale(0.1,-0.1)"><path d="M0,250v-180h250h250v180v180h-250h-250zM480,397c0,-18 -208,-197 -230,-197c-21,0 -223,173 -228,195c-3,13 29,15 227,15c182,0 231,-3 231,-13zM93,297l58,-53l-66,-52l-65,-53v106c0,58 3,105 8,105c4,-1 33,-25 65,-53zM480,245v-106l-65,53c-36,28 -65,52 -65,53c0,3 122,105 126,105c2,0 4,-47 4,-105zM250,180c8,0 31,11 51,24l35,24l72,-56c40,-30 72,-61 72,-68c0,-11 -43,-14 -231,-14c-194,0 -230,2 -227,14c2,8 34,39 72,69l69,55l36,-24c20,-13 43,-24 51,-24z"></path></g></g></g></svg>